<svg width="180" height="180" viewBox="0 0 180 180" fill="none" xmlns="http://www.w3.org/2000/svg">
<g filter="url(#filter0_d_2049_13580)">
<g clip-path="url(#clip0_2049_13580)">
<path d="M8 90C8 44.7126 44.7126 8 90 8V8C135.287 8 172 44.7126 172 90V90C172 135.287 135.287 172 90 172V172C44.7126 172 8 135.287 8 90V90Z" fill="url(#paint0_linear_2049_13580)" shape-rendering="crispEdges"/>
<path d="M16 90C16 49.1309 49.1309 16 90 16V16C130.869 16 164 49.1309 164 90V90C164 130.869 130.869 164 90 164V164C49.1309 164 16 130.869 16 90V90Z" fill="url(#paint1_linear_2049_13580)"/>
<path d="M90 15.5C131.145 15.5 164.5 48.8548 164.5 90C164.5 131.145 131.145 164.5 90 164.5C48.8548 164.5 15.5 131.145 15.5 90C15.5 48.8548 48.8548 15.5 90 15.5Z" stroke="#09090B" stroke-opacity="0.1"/>
<g filter="url(#filter1_dd_2049_13580)">
<path d="M84.6667 92.6667H58L68.6667 82H79.3333L103.333 58H119.333L84.6667 92.6667Z" fill="#09090B"/>
<path d="M87.3333 100.667V95.3333L122 60.6667V66L87.3333 100.667Z" fill="#09090B"/>
<path d="M87.3333 111.333V106L122 71.3333V76.6667L87.3333 111.333Z" fill="#09090B"/>
<path d="M87.3333 122V116.667L100.667 103.333V108.667L87.3333 122Z" fill="#09090B"/>
</g>
</g>
</g>
<defs>
<filter id="filter0_d_2049_13580" x="-30" y="-5" width="240" height="240" filterUnits="userSpaceOnUse" color-interpolation-filters="sRGB">
<feFlood flood-opacity="0" result="BackgroundImageFix"/>
<feColorMatrix in="SourceAlpha" type="matrix" values="0 0 0 0 0 0 0 0 0 0 0 0 0 0 0 0 0 0 127 0" result="hardAlpha"/>
<feMorphology radius="12" operator="erode" in="SourceAlpha" result="effect1_dropShadow_2049_13580"/>
<feOffset dy="25"/>
<feGaussianBlur stdDeviation="25"/>
<feComposite in2="hardAlpha" operator="out"/>
<feColorMatrix type="matrix" values="0 0 0 0 0 0 0 0 0 0 0 0 0 0 0 0 0 0 0.25 0"/>
<feBlend mode="normal" in2="BackgroundImageFix" result="effect1_dropShadow_2049_13580"/>
<feBlend mode="normal" in="SourceGraphic" in2="effect1_dropShadow_2049_13580" result="shape"/>
</filter>
<filter id="filter1_dd_2049_13580" x="-16.6667" y="-16.6666" width="213.333" height="213.333" filterUnits="userSpaceOnUse" color-interpolation-filters="sRGB">
<feFlood flood-opacity="0" result="BackgroundImageFix"/>
<feColorMatrix in="SourceAlpha" type="matrix" values="0 0 0 0 0 0 0 0 0 0 0 0 0 0 0 0 0 0 127 0" result="hardAlpha"/>
<feOffset/>
<feGaussianBlur stdDeviation="32"/>
<feColorMatrix type="matrix" values="0 0 0 0 0.992157 0 0 0 0 0.729412 0 0 0 0 0.454902 0 0 0 1 0"/>
<feBlend mode="normal" in2="BackgroundImageFix" result="effect1_dropShadow_2049_13580"/>
<feColorMatrix in="SourceAlpha" type="matrix" values="0 0 0 0 0 0 0 0 0 0 0 0 0 0 0 0 0 0 127 0" result="hardAlpha"/>
<feOffset/>
<feGaussianBlur stdDeviation="4"/>
<feColorMatrix type="matrix" values="0 0 0 0 0.992157 0 0 0 0 0.729412 0 0 0 0 0.454902 0 0 0 0.5 0"/>
<feBlend mode="normal" in2="effect1_dropShadow_2049_13580" result="effect2_dropShadow_2049_13580"/>
<feBlend mode="normal" in="SourceGraphic" in2="effect2_dropShadow_2049_13580" result="shape"/>
</filter>
<linearGradient id="paint0_linear_2049_13580" x1="90" y1="8" x2="90" y2="172" gradientUnits="userSpaceOnUse">
<stop stop-color="#FDBA74" stop-opacity="0.3"/>
<stop offset="1" stop-color="#FDBA74" stop-opacity="0.1"/>
</linearGradient>
<linearGradient id="paint1_linear_2049_13580" x1="90" y1="164" x2="90" y2="16" gradientUnits="userSpaceOnUse">
<stop stop-color="#09090B" stop-opacity="0.05"/>
<stop offset="1" stop-color="#09090B" stop-opacity="0.2"/>
</linearGradient>
<clipPath id="clip0_2049_13580">
<path d="M8 90C8 44.7126 44.7126 8 90 8V8C135.287 8 172 44.7126 172 90V90C172 135.287 135.287 172 90 172V172C44.7126 172 8 135.287 8 90V90Z" fill="white"/>
</clipPath>
</defs>
</svg>
